<svg xmlns="http://www.w3.org/2000/svg" xmlns:svg="http://www.w3.org/2000/svg" id="Layer_1" width="57.6" height="57.6" x="0" y="0" enable-background="new 0 0 57.6 57.6" version="1.1" viewBox="0 0 57.6 57.6" xml:space="preserve"><metadata id="metadata333"/><desc id="desc3">Fritzing breadboard generated by brd2svg</desc><g id="breadboard"><g id="icon"><path id="path7" fill="#C62717" d="M0,57.6h57.6V0H0V57.6 M5.8,54c0-0.8,0.6-1.4,1.4-1.4s1.4,0.6,1.4,1.4c0,0.8-0.6,1.4-1.4,1.4 S5.8,54.8,5.8,54z M5.8,46.8c0-0.8,0.6-1.4,1.4-1.4s1.4,0.6,1.4,1.4c0,0.8-0.6,1.4-1.4,1.4S5.8,47.6,5.8,46.8z M5.8,39.6 c0-0.8,0.6-1.4,1.4-1.4s1.4,0.6,1.4,1.4C8.6,40.4,8,41,7.2,41S5.8,40.4,5.8,39.6z M5.8,32.4c0-0.8,0.6-1.4,1.4-1.4 s1.4,0.6,1.4,1.4c0,0.8-0.6,1.4-1.4,1.4S5.8,33.2,5.8,32.4z M5.8,25.2c0-0.8,0.6-1.4,1.4-1.4s1.4,0.6,1.4,1.4S8,26.6,7.2,26.6 S5.8,26,5.8,25.2L5.8,25.2z M5.8,18c0-0.8,0.6-1.4,1.4-1.4s1.4,0.6,1.4,1.4S8,19.4,7.2,19.4S5.8,18.8,5.8,18z M5.8,10.8 c0-0.8,0.6-1.4,1.4-1.4s1.4,0.6,1.4,1.4S8,12.2,7.2,12.2S5.8,11.6,5.8,10.8z M5.8,3.6c0-0.8,0.6-1.4,1.4-1.4s1.4,0.6,1.4,1.4 S8,5,7.2,5S5.8,4.4,5.8,3.6z M49,3.6c0-0.8,0.6-1.4,1.4-1.4c0.8,0,1.4,0.6,1.4,1.4S51.2,5,50.4,5C49.6,5,49,4.4,49,3.6z M49,10.8 c0-0.8,0.6-1.4,1.4-1.4c0.8,0,1.4,0.6,1.4,1.4s-0.6,1.4-1.4,1.4C49.6,12.2,49,11.6,49,10.8z M49,18c0-0.8,0.6-1.4,1.4-1.4 c0.8,0,1.4,0.6,1.4,1.4s-0.6,1.4-1.4,1.4C49.6,19.4,49,18.8,49,18z M49,25.2c0-0.8,0.6-1.4,1.4-1.4c0.8,0,1.4,0.6,1.4,1.4 s-0.6,1.4-1.4,1.4C49.6,26.6,49,26,49,25.2z M49,32.4c0-0.8,0.6-1.4,1.4-1.4c0.8,0,1.4,0.6,1.4,1.4c0,0.8-0.6,1.4-1.4,1.4 C49.6,33.8,49,33.2,49,32.4z M49,39.6c0-0.8,0.6-1.4,1.4-1.4c0.8,0,1.4,0.6,1.4,1.4c0,0.8-0.6,1.4-1.4,1.4 C49.6,41,49,40.4,49,39.6z M49,46.8c0-0.8,0.6-1.4,1.4-1.4c0.8,0,1.4,0.6,1.4,1.4c0,0.8-0.6,1.4-1.4,1.4 C49.6,48.2,49,47.6,49,46.8z M49,54c0-0.8,0.6-1.4,1.4-1.4c0.8,0,1.4,0.6,1.4,1.4c0,0.8-0.6,1.4-1.4,1.4C49.6,55.4,49,54.8,49,54z"/><g id="g9"><title id="title11">layer 21</title><g id="g13" transform="matrix(1.337404,0,0,1.337404,-12.807972,-16.004479)"><title id="title15">text:TB6612FNG</title><text id="text17" font-size="3.341" transform="translate(19.8,50.04)" style="font-size:3.34080005px;font-family:OCRA;fill:#fff">TB6612FNG</text></g><g id="g25"><title id="title27">element:C1</title><g id="g29"><title id="title31">package:0402-CAP</title><line id="line33" x1="32.4" x2="32.4" y1="17.9" y2="18.1" fill="none" stroke="#FFF" stroke-linecap="round" stroke-width="1.152"/></g></g><g id="g35"><title id="title37">element:C2</title><g id="g39"><title id="title41">package:0402-CAP</title><line id="line43" x1="25.2" x2="25.2" y1="18.1" y2="17.9" fill="none" stroke="#FFF" stroke-linecap="round" stroke-width="1.152"/></g></g><g id="g45"><title id="title47">element:C3</title><g id="g49"><title id="title51">package:EIA3528</title><line id="line53" x1="31.4" x2="36.2" y1="6.3" y2="6.3" fill="none" stroke="#FFF" stroke-linecap="round" stroke-width=".576"/><line id="line55" x1="36.2" x2="36.2" y1="6.3" y2="15.2" fill="none" stroke="#FFF" stroke-linecap="round" stroke-width=".576"/><line id="line57" x1="36.2" x2="31.4" y1="15.2" y2="15.2" fill="none" stroke="#FFF" stroke-linecap="round" stroke-width=".576"/><line id="line59" x1="26" x2="22.6" y1="6.4" y2="6.4" fill="none" stroke="#FFF" stroke-linecap="round" stroke-width=".576"/><line id="line61" x1="22.6" x2="21.4" y1="6.4" y2="7.4" fill="none" stroke="#FFF" stroke-linecap="round" stroke-width=".576"/><line id="line63" x1="21.4" x2="21.4" y1="7.4" y2="14.3" fill="none" stroke="#FFF" stroke-linecap="round" stroke-width=".576"/><line id="line65" x1="21.4" x2="22.6" y1="14.3" y2="15.2" fill="none" stroke="#FFF" stroke-linecap="round" stroke-width=".576"/><line id="line67" x1="22.6" x2="26" y1="15.2" y2="15.2" fill="none" stroke="#FFF" stroke-linecap="round" stroke-width=".576"/><line id="line69" x1="22.6" x2="26" y1="15.2" y2="15.2" fill="none" stroke="#FFF" stroke-linecap="round" stroke-width=".576"/><line id="line71" x1="27.1" x2="27.1" y1="14.5" y2="7.2" fill="none" stroke="#FFF" stroke-linecap="round" stroke-width=".576"/></g></g><g id="g73"><title id="title75">element:JP5</title><g id="g77"><title id="title79">package:FIDUCIAL-1X2</title></g></g><g id="g81"><title id="title83">element:JP6</title><g id="g85"><title id="title87">package:FIDUCIAL-1X2</title></g></g><g id="g89"><title id="title91">element:U1</title><g id="g93"><title id="title95">package:SSOP24</title><line id="line97" x1="35.9" x2="35.9" y1="20.4" y2="44.4" fill="none" stroke="#FFF" stroke-linecap="round" stroke-width=".576"/><line id="line99" x1="35.9" x2="21.7" y1="44.4" y2="44.4" fill="none" stroke="#FFF" stroke-linecap="round" stroke-width=".576"/><line id="line101" x1="21.7" x2="21.7" y1="44.4" y2="20.4" fill="none" stroke="#FFF" stroke-linecap="round" stroke-width=".576"/><line id="line103" x1="21.7" x2="35.9" y1="20.4" y2="20.4" fill="none" stroke="#FFF" stroke-linecap="round" stroke-width=".576"/><circle id="circle105" cx="23.8" cy="22.3" r=".6" fill="none" stroke="#FFF" stroke-width=".576"/></g></g></g><g id="g109"><g id="g111"><rect id="rect113" width="12.7" height="7.1" x="22.4" y="7" fill="#303030"/><rect id="rect115" width="1.4" height="7.1" x="22.4" y="7" fill="#E5E3E3"/></g><g id="g117" transform="matrix(2.57889e-06, 1, -1, 2.57889e-06, 35.224, -13.1073)"><g id="g119"><g id="g121" transform="matrix(0, -1, 1, 0, -9.35719, 46.2303)"><rect id="connector25pad" width="4" height="1" x="28.4" y="49.6" fill="#888E8A"/></g><g id="g124" transform="matrix(0, -1, 1, 0, -24.0973, 60.9704)"><rect id="connector33pad" width="4" height="1" x="43.1" y="79" fill="#888E8A"/></g><g id="g127" transform="matrix(0, -1, 1, 0, 9.52726, 68.7997)"><rect id="connector41pad" width="4" height="1" x="70.5" y="32.6" fill="#888E8A"/></g><g id="g130" transform="matrix(0, -1, 1, 0, -16.7273, 53.6003)"><rect id="connector29pad" width="4" height="1" x="35.7" y="64.3" fill="#888E8A"/></g><g id="g133" transform="matrix(0, -1, 1, 0, 2.15716, 76.1695)"><rect id="connector37pad" width="4" height="1" x="77.8" y="47.2" fill="#888E8A"/></g><g id="g136" transform="matrix(0, -1, 1, 0, 16.8973, 61.4296)"><rect id="connector45pad" width="4" height="1" x="63.1" y="17.8" fill="#888E8A"/></g><g id="g139" transform="matrix(0, -1, 1, 0, -13.0422, 49.9153)"><rect id="connector27pad" width="4" height="1" x="32" y="56.9" fill="#888E8A"/></g><g id="g142" transform="matrix(0, -1, 1, 0, -20.4123, 57.2854)"><rect id="connector31pad" width="4" height="1" x="39.4" y="71.6" fill="#888E8A"/></g><g id="g145" transform="matrix(0, 1, -1, 0, 79.8545, 1.52788)"><rect id="connector35pad" width="4" height="1" x="-7.2" y="25.7" fill="#888E8A"/></g><g id="g148" transform="matrix(0, -1, 1, 0, 5.8422, 72.4846)"><rect id="connector39pad" width="4" height="1" x="74.2" y="39.9" fill="#888E8A"/></g><g id="g151" transform="matrix(0, -1, 1, 0, 13.2123, 65.1146)"><rect id="connector43pad" width="4" height="1" x="66.8" y="25.1" fill="#888E8A"/></g><g id="g154" transform="matrix(0, -1, 1, 0, -7.51464, 44.3877)"><rect id="connector24pad" width="4" height="1" x="26.5" y="45.8" fill="#888E8A"/></g><g id="g157" transform="matrix(0, -1, 1, 0, -11.1997, 48.0727)"><rect id="connector26pad" width="4" height="1" x="30.2" y="53.3" fill="#888E8A"/></g><g id="g160" transform="matrix(0, -1, 1, 0, -14.8847, 51.7578)"><rect id="connector28pad" width="4" height="1" x="33.9" y="60.6" fill="#888E8A"/></g><g id="g163" transform="matrix(0, -1, 1, 0, -18.5697, 55.4428)"><rect id="connector30pad" width="4" height="1" x="37.6" y="68" fill="#888E8A"/></g><g id="g166" transform="matrix(0, -1, 1, 0, -22.2548, 59.1278)"><rect id="connector32pad" width="4" height="1" x="41.3" y="75.4" fill="#888E8A"/></g><g id="g169" transform="matrix(0, 1, -1, 0, 81.6977, 3.37039)"><rect id="connector34pad" width="4" height="1" x="-9" y="25.8" fill="#888E8A"/></g><g id="g172" transform="matrix(0, -1, 1, 0, 0.314646, 78.012)"><rect id="connector36pad" width="4" height="1" x="79.7" y="50.9" fill="#888E8A"/></g><g id="g175" transform="matrix(0, -1, 1, 0, 3.99969, 74.327)"><rect id="connector38pad" width="4" height="1" x="76" y="43.6" fill="#888E8A"/></g><g id="g178" transform="matrix(0, -1, 1, 0, 7.6847, 70.6422)"><rect id="connector40pad" width="4" height="1" x="72.3" y="36.2" fill="#888E8A"/></g><g id="g181" transform="matrix(0, -1, 1, 0, 11.3697, 66.9572)"><rect id="connector42pad" width="4" height="1" x="68.6" y="28.8" fill="#888E8A"/></g><g id="g184" transform="matrix(0, -1, 1, 0, 15.0548, 63.2722)"><rect id="connector44pad" width="4" height="1" x="64.9" y="21.4" fill="#888E8A"/></g><g id="g187" transform="matrix(0, -1, 1, 0, -3.82961, 40.7027)"><rect id="connector22pad" width="4" height="1" x="22.8" y="38.5" fill="#888E8A"/></g><g id="g190" transform="matrix(0, -1, 1, 0, -5.67212, 42.5452)"><rect id="connector23pad" width="4" height="1" x="24.7" y="42.2" fill="#888E8A"/></g></g><g id="g193"><g id="g195"><g id="g197"><g id="_x30_.1.12.0.0.0.0.8_1_"><rect id="_x30_.1.12.0.0.0.0.8.0_1_" width="15.9" height="24.1" x="37.5" y="-5.8" fill="#303030" transform="matrix(2.578893e-06 1 -1 2.578893e-06 51.6955 -39.2016)"/></g></g></g></g><polygon id="_x30_.1.12.0.0.0.0.9_1_" fill="#1F1F1F" points="57.6 14.2 33.5 14.2 34.2 13.3 56.7 13.3"/><polygon id="_x30_.1.12.0.0.0.0.10_1_" fill="#1F1F1F" points="57.6 -1.7 33.5 -1.7 34.2 -.7 56.7 -.7"/><polygon id="_x30_.1.12.0.0.0.0.11_1_" points="57.6 14.2 57.6 -1.7 56.7 -.7 56.7 13.3"/><polygon id="_x30_.1.12.0.0.0.0.12_1_" fill="#3D3D3D" points="33.5 14.2 33.5 -1.7 34.2 -.7 34.2 13.3"/></g></g><rect id="rect205" width="14.2" height="24.1" x="21.7" y="20.4" fill="#333"/><circle id="connector6pin" cx="7.2" cy="54" r="2.1" fill="none" stroke="#9A916C" stroke-width="1.224"/><path id="path208" fill="#9A916C" d="M2.5,51.9h9.4v4.1H2.5V51.9 M5.1,54c0,1.1,0.9,2.1,2.1,2.1s2.1-0.9,2.1-2.1c0,0,0,0,0,0 c0-1.1-0.9-2.1-2.1-2.1S5.1,52.9,5.1,54C5.1,54,5.1,54,5.1,54z"/><circle id="connector7pin" cx="7.2" cy="46.8" r="2.1" fill="none" stroke="#9A916C" stroke-width="1.224"/><path id="path211" fill="#9A916C" d="M2.5,44.7h9.4v4.1H2.5V44.7 M5.1,46.8c0,1.1,0.9,2.1,2.1,2.1s2.1-0.9,2.1-2.1c0,0,0,0,0,0 c0-1.1-0.9-2.1-2.1-2.1S5.1,45.7,5.1,46.8C5.1,46.8,5.1,46.8,5.1,46.8z"/><circle id="connector8pin" cx="7.2" cy="39.6" r="2.1" fill="none" stroke="#9A916C" stroke-width="1.224"/><path id="path214" fill="#9A916C" d="M2.5,37.5h9.4v4.1H2.5V37.5 M5.1,39.6c0,1.1,0.9,2.1,2.1,2.1s2.1-0.9,2.1-2.1c0,0,0,0,0,0 c0-1.1-0.9-2.1-2.1-2.1S5.1,38.5,5.1,39.6C5.1,39.6,5.1,39.6,5.1,39.6z"/><circle id="connector9pin" cx="7.2" cy="32.4" r="2.1" fill="none" stroke="#9A916C" stroke-width="1.224"/><path id="path217" fill="#9A916C" d="M2.5,30.3h9.4v4.1H2.5V30.3 M5.1,32.4c0,1.1,0.9,2.1,2.1,2.1s2.1-0.9,2.1-2.1c0,0,0,0,0,0 c0-1.1-0.9-2.1-2.1-2.1S5.1,31.3,5.1,32.4C5.1,32.4,5.1,32.4,5.1,32.4z"/><circle id="connector10pin" cx="7.2" cy="25.2" r="2.1" fill="none" stroke="#9A916C" stroke-width="1.224"/><path id="path220" fill="#9A916C" d="M2.5,23.1h9.4v4.1H2.5V23.1 M5.1,25.2c0,1.1,0.9,2.1,2.1,2.1s2.1-0.9,2.1-2.1c0,0,0,0,0,0 c0-1.1-0.9-2.1-2.1-2.1S5.1,24.1,5.1,25.2C5.1,25.2,5.1,25.2,5.1,25.2z"/><circle id="connector11pin" cx="7.2" cy="18" r="2.1" fill="none" stroke="#9A916C" stroke-width="1.224"/><path id="path223" fill="#9A916C" d="M2.5,15.9h9.4v4.1H2.5V15.9 M5.1,18c0,1.1,0.9,2.1,2.1,2.1s2.1-0.9,2.1-2.1c0,0,0,0,0,0 c0-1.1-0.9-2.1-2.1-2.1C6.1,15.9,5.1,16.9,5.1,18C5.1,18,5.1,18,5.1,18z"/><circle id="connector12pin" cx="7.2" cy="10.8" r="2.1" fill="none" stroke="#9A916C" stroke-width="1.224"/><path id="path226" fill="#9A916C" d="M2.5,8.7h9.4v4.1H2.5V8.7 M5.1,10.8c0,1.1,0.9,2.1,2.1,2.1c1.1,0,2.1-0.9,2.1-2.1c0,0,0,0,0,0 c0-1.1-0.9-2.1-2.1-2.1C6.1,8.7,5.1,9.7,5.1,10.8C5.1,10.8,5.1,10.8,5.1,10.8z"/><circle id="connector13pin" cx="7.2" cy="3.6" r="2.1" fill="none" stroke="#9A916C" stroke-width="1.224"/><path id="path229" fill="#9A916C" d="M2.5,1.5h9.4v4.1H2.5V1.5 M5.1,3.6c0,1.1,0.9,2.1,2.1,2.1c1.1,0,2.1-0.9,2.1-2.1c0,0,0,0,0,0 c0-1.1-0.9-2.1-2.1-2.1C6.1,1.5,5.1,2.5,5.1,3.6C5.1,3.6,5.1,3.6,5.1,3.6z"/><circle id="connector14pin" cx="50.4" cy="3.6" r="2.1" fill="none" stroke="#9A916C" stroke-width="1.224"/><path id="path232" fill="#9A916C" d="M45.7,1.5h9.4v4.1h-9.4V1.5 M48.3,3.6c0,1.1,0.9,2.1,2.1,2.1c1.1,0,2.1-0.9,2.1-2.1c0,0,0,0,0,0 c0-1.1-0.9-2.1-2.1-2.1C49.3,1.5,48.3,2.5,48.3,3.6C48.3,3.6,48.3,3.6,48.3,3.6z"/><circle id="connector15pin" cx="50.4" cy="10.8" r="2.1" fill="none" stroke="#9A916C" stroke-width="1.224"/><path id="path235" fill="#9A916C" d="M45.7,8.7h9.4v4.1h-9.4V8.7 M48.3,10.8c0,1.1,0.9,2.1,2.1,2.1c1.1,0,2.1-0.9,2.1-2.1c0,0,0,0,0,0 c0-1.1-0.9-2.1-2.1-2.1C49.3,8.7,48.3,9.7,48.3,10.8C48.3,10.8,48.3,10.8,48.3,10.8z"/><circle id="connector16pin" cx="50.4" cy="18" r="2.1" fill="none" stroke="#9A916C" stroke-width="1.224"/><path id="path238" fill="#9A916C" d="M45.7,15.9h9.4v4.1h-9.4V15.9 M48.3,18c0,1.1,0.9,2.1,2.1,2.1s2.1-0.9,2.1-2.1c0,0,0,0,0,0 c0-1.1-0.9-2.1-2.1-2.1C49.3,15.9,48.3,16.9,48.3,18C48.3,18,48.3,18,48.3,18z"/><circle id="connector17pin" cx="50.4" cy="25.2" r="2.1" fill="none" stroke="#9A916C" stroke-width="1.224"/><path id="path241" fill="#9A916C" d="M45.7,23.1h9.4v4.1h-9.4V23.1 M48.3,25.2c0,1.1,0.9,2.1,2.1,2.1s2.1-0.9,2.1-2.1c0,0,0,0,0,0 c0-1.1-0.9-2.1-2.1-2.1S48.3,24.1,48.3,25.2C48.3,25.2,48.3,25.2,48.3,25.2z"/><circle id="connector18pin" cx="50.4" cy="32.4" r="2.1" fill="none" stroke="#9A916C" stroke-width="1.224"/><path id="path244" fill="#9A916C" d="M45.7,30.3h9.4v4.1h-9.4V30.3 M48.3,32.4c0,1.1,0.9,2.1,2.1,2.1s2.1-0.9,2.1-2.1c0,0,0,0,0,0 c0-1.1-0.9-2.1-2.1-2.1S48.3,31.3,48.3,32.4C48.3,32.4,48.3,32.4,48.3,32.4z"/><circle id="connector19pin" cx="50.4" cy="39.6" r="2.1" fill="none" stroke="#9A916C" stroke-width="1.224"/><path id="path247" fill="#9A916C" d="M45.7,37.5h9.4v4.1h-9.4V37.5 M48.3,39.6c0,1.1,0.9,2.1,2.1,2.1s2.1-0.9,2.1-2.1c0,0,0,0,0,0 c0-1.1-0.9-2.1-2.1-2.1S48.3,38.5,48.3,39.6C48.3,39.6,48.3,39.6,48.3,39.6z"/><circle id="connector20pin" cx="50.4" cy="46.8" r="2.1" fill="none" stroke="#9A916C" stroke-width="1.224"/><path id="path250" fill="#9A916C" d="M45.7,44.7h9.4v4.1h-9.4V44.7 M48.3,46.8c0,1.1,0.9,2.1,2.1,2.1s2.1-0.9,2.1-2.1c0,0,0,0,0,0 c0-1.1-0.9-2.1-2.1-2.1S48.3,45.7,48.3,46.8C48.3,46.8,48.3,46.8,48.3,46.8z"/><circle id="connector21pin" cx="50.4" cy="54" r="2.1" fill="none" stroke="#9A916C" stroke-width="1.224"/><path id="path253" fill="#9A916C" d="M45.7,51.9h9.4v4.1h-9.4V51.9 M48.3,54c0,1.1,0.9,2.1,2.1,2.1s2.1-0.9,2.1-2.1c0,0,0,0,0,0 c0-1.1-0.9-2.1-2.1-2.1S48.3,52.9,48.3,54C48.3,54,48.3,54,48.3,54z"/></g><g id="_x30_402-cap_1_" transform="matrix(1, 0, 0, 1, 30.9942, 15.747)"><g id="_x30_402-cap" transform="matrix(1, 0, 0, 1, 10.275, 76.1789)"><g id="g257" transform="matrix(0, 1, -1, 0, 4.1105, -1.5595)"><g id="g259"><g id="g261"><rect id="rect263" width="5.7" height="2.6" x="-75.4" y="11.7" fill="#534741" transform="matrix(2.578893e-06 1 -1 2.578893e-06 -59.6506 85.522)"/><rect id="rect265" width="5.7" height="0" x="-74.2" y="12.9" enable-background="new" opacity=".2" transform="matrix(2.578893e-06 1 -1 2.578893e-06 -58.3823 84.2555)"/><rect id="rect267" width="5.7" height="0" x="-76.7" y="12.9" fill="#FFF" enable-background="new" opacity=".2" transform="matrix(2.578893e-06 1 -1 2.578893e-06 -60.9143 86.7871)"/></g><g id="g269"><path id="path271" fill="#DCDCDC" d="M-73.9,10.9L-73.9,10.9L-73.9,10.9L-73.9,10.9L-73.9,10.9c0.2,0.1,0.8,0.2,1,0.2c0.2,0,1.4,0,1.6-0.1 v-0.9h-2.6V10.9z"/><path id="path273" fill="#DCDCDC" d="M-73.8,14.9L-73.8,14.9l-0.1,0.9h2.6v-0.9c-0.2-0.1-1.4-0.1-1.6-0.1C-73.1,14.7-73.6,14.8-73.8,14.9z"/><rect id="rect275" width=".9" height="0" x="-71.8" y="15.3" enable-background="new" opacity=".15" transform="matrix(2.578893e-06 1 -1 2.578893e-06 -55.996 86.6512)"/><rect id="rect277" width=".9" height="0" x="-74.3" y="15.3" fill="#FFF" enable-background="new" opacity=".5" transform="matrix(2.578893e-06 1 -1 2.578893e-06 -58.5228 89.1778)"/><path id="path279" fill="#D1C690" d="M-71.3,10.1V11"/><rect id="rect281" width=".9" height="0" x="-71.8" y="10.5" enable-background="new" opacity=".15" transform="matrix(2.578893e-06 1 -1 2.578893e-06 -60.7792 81.868)"/><rect id="rect283" width=".9" height="0" x="-74.3" y="10.5" fill="#FFF" enable-background="new" opacity=".5" transform="matrix(2.578893e-06 1 -1 2.578893e-06 -63.3069 84.3956)"/><line id="line285" x1="-71.3" x2="-71.3" y1="15.2" y2="15.2" fill="none"/></g></g></g></g><rect id="rect287" width=".1" height="2.5" x="4.2" y=".8" enable-background="new" opacity=".1"/><rect id="rect289" width=".1" height="2.5" x="-1.4" y=".8" fill="#FFF" enable-background="new" opacity=".2"/></g><g id="_x30_402-cap_3_" transform="matrix(1, 0, 0, 1, 24.0468, 14.583)"><g id="g292" transform="matrix(-1, 0, 0, -1, 2.559, 5.67)"><g id="_x30_402-cap_2_" transform="matrix(1, 0, 0, 1, 10.275, 76.1789)"><g id="g295" transform="matrix(0, 1, -1, 0, 4.1105, -1.5595)"><g id="g297"><g id="g299"><rect id="rect301" width="5.7" height="2.6" x="-75" y="11.6" fill="#534741" transform="matrix(-2.547107e-06 -1 1 -2.547107e-06 -85.0708 -59.2231)"/><rect id="rect303" width="5.7" height="0" x="-76.2" y="12.9" enable-background="new" opacity=".2" transform="matrix(-2.547107e-06 -1 1 -2.547107e-06 -86.3374 -60.4914)"/><rect id="rect305" width="5.7" height="0" x="-73.7" y="12.9" fill="#FFF" enable-background="new" opacity=".2" transform="matrix(-2.547107e-06 -1 1 -2.547107e-06 -83.8057 -57.9594)"/></g><g id="g307"><path id="path309" fill="#DCDCDC" d="M-70.9,14.9L-70.9,14.9L-70.9,14.9L-70.9,14.9L-70.9,14.9c-0.2-0.1-0.8-0.2-1-0.2 c-0.2,0-1.4,0-1.6,0.1v0.9h2.6V14.9z"/><path id="path311" fill="#DCDCDC" d="M-70.9,11L-70.9,11l0.1-0.9h-2.6V11c0.2,0.1,1.4,0.1,1.6,0.1C-71.6,11.1-71.1,11.1-70.9,11z"/><rect id="rect313" width=".9" height="0" x="-73.9" y="10.5" enable-background="new" opacity=".15" transform="matrix(-2.547107e-06 -1 1 -2.547107e-06 -83.9416 -62.8777)"/><rect id="rect315" width=".9" height="0" x="-71.3" y="10.5" fill="#FFF" enable-background="new" opacity=".5" transform="matrix(-2.547107e-06 -1 1 -2.547107e-06 -81.415 -60.3509)"/><path id="path317" fill="#D1C690" d="M-73.4,15.8v-0.9"/><rect id="rect319" width=".9" height="0" x="-73.9" y="15.3" enable-background="new" opacity=".15" transform="matrix(-2.547107e-06 -1 1 -2.547107e-06 -88.7248 -58.0945)"/><rect id="rect321" width=".9" height="0" x="-71.3" y="15.3" fill="#FFF" enable-background="new" opacity=".5" transform="matrix(-2.547107e-06 -1 1 -2.547107e-06 -86.1972 -55.5667)"/><line id="line323" x1="-73.4" x2="-73.4" y1="10.6" y2="10.6" fill="none"/></g></g></g></g><rect id="rect325" width=".1" height="2.5" x="-1.4" y="1.2" enable-background="new" opacity=".1"/><rect id="rect327" width=".1" height="2.5" x="4.2" y="1.2" fill="#FFF" enable-background="new" opacity=".2"/></g></g></g></svg>