<svg xmlns="http://www.w3.org/2000/svg" xmlns:xlink="http://www.w3.org/1999/xlink" id="Layer_1" x="0" y="0" version="1.1" viewBox="0 0 512 512" xml:space="preserve" style="enable-background:new 0 0 512 512"><path style="fill:#b0bec5" d="M503.102,188.926C473.627,80.078,374.173,0,256,0C114.615,0,0,114.615,0,256	c0,117.856,79.648,217.094,188.05,246.865L503.102,188.926z"/><path style="fill:#78909c" d="M512,256c0-23.211-3.108-45.694-8.898-67.074l-90.014-90.014L98.592,413.408l89.458,89.458	C209.691,508.809,232.471,512,256,512C397.384,512,512,397.384,512,256z"/><path style="fill:#e0f7fa" d="M256,33.391L181.797,256L256,478.609c122.748,0,222.609-99.862,222.609-222.609	S378.748,33.391,256,33.391z"/><path style="fill:#fff" d="M33.391,256c0,122.746,99.861,222.609,222.609,222.609V33.391	C133.252,33.391,33.391,133.254,33.391,256z"/><path style="fill:#e64a19" d="M256,55.652L189.217,256L256,456.348c110.473,0,200.348-89.876,200.348-200.348	S366.473,55.652,256,55.652z"/><path style="fill:#ff5722" d="M55.652,256c0,110.472,89.875,200.348,200.348,200.348V55.652	C145.527,55.652,55.652,145.528,55.652,256z"/><polygon style="fill:#e0f7fa" points="395.13 211.478 395.13 300.522 256 300.522 230.704 256 256 211.478"/><rect style="fill:#fff" width="139.13" height="89.043" x="116.87" y="211.478"/></svg>