<svg xmlns="http://www.w3.org/2000/svg" xmlns:xlink="http://www.w3.org/1999/xlink" id="Layer_1" x="0" y="0" version="1.1" viewBox="0 0 460 460" xml:space="preserve" style="enable-background:new 0 0 460 460"><g id="XMLID_945_"><rect id="XMLID_946_" width="134.76" height="30" x="230" y="395.37" style="fill:#faa241"/><rect id="XMLID_947_" width="134.76" height="30" x="230" y="330.75" style="fill:#faa241"/><rect id="XMLID_948_" width="134.76" height="30" x="230" y="263.37" style="fill:#faa241"/><rect id="XMLID_949_" width="134.76" height="30" x="230" y="195.99" style="fill:#faa241"/><rect id="XMLID_950_" width="108.24" height="30" x="230" y="128.61" style="fill:#faa241"/><rect id="XMLID_951_" width="134.76" height="30" x="95.24" y="395.37" style="fill:#ffc052"/><rect id="XMLID_952_" width="134.76" height="30" x="95.24" y="330.75" style="fill:#ffc052"/><rect id="XMLID_953_" width="134.76" height="30" x="95.24" y="263.37" style="fill:#ffc052"/><rect id="XMLID_954_" width="134.76" height="30" x="95.24" y="195.99" style="fill:#ffc052"/><rect id="XMLID_955_" width="114.76" height="30" x="115.24" y="128.61" style="fill:#ffc052"/><rect id="XMLID_956_" width="30" height="403" x="215" y="57" style="fill:#f58330"/><path id="XMLID_957_" d="M260,42.201V0h-30l-10,32.602l10,32.602C261.241,94.839,282.38,162.11,282.38,235 v225h30V235c0-44.179-6.876-86.496-19.884-122.376c-2.296-6.333-4.759-12.383-7.371-18.149 C325.297,128.932,349.76,179.861,349.76,235v225h30V235C379.76,152.467,332.599,78.05,260,42.201z" style="fill:#f58330"/><path id="XMLID_958_" d="M200,0v42.202C127.401,78.051,80.24,152.468,80.24,235v225h30V235 c0-55.139,24.463-106.067,64.635-140.525c-2.612,5.766-5.075,11.816-7.371,18.148C154.496,148.504,147.62,190.821,147.62,235v225 h30V235c0-72.891,21.139-140.162,52.38-169.796V0H200z" style="fill:#faa241"/></g></svg>