<svg xmlns="http://www.w3.org/2000/svg" xmlns:svg="http://www.w3.org/2000/svg" id="svg10346" width="150mm" height="150mm" version="1.1" viewBox="0 0 531.496 531.496"><metadata id="metadata10351"/><g id="layer1" transform="translate(-30.854895,-14.370248)"><path style="fill:#37abc8;fill-opacity:1;stroke:none;stroke-width:1.63051975;stroke-miterlimit:4;stroke-dasharray:none" id="rect4783" d="m 127.33929,16.00082 0,529.86523 338.52735,0 0,-529.86523 -338.52735,0 z m 169.26368,8.361328 52.53515,90.994142 52.53321,90.99219 -105.06836,0 -105.07032,0 52.53516,-90.99219 52.53516,-90.994142 z m 0,223.082032 a 25.422167,25.422167 0 0 1 25.42187,25.42187 25.422167,25.422167 0 0 1 -25.42187,25.42188 25.422167,25.422167 0 0 1 -25.42188,-25.42188 25.422167,25.422167 0 0 1 25.42188,-25.42187 z m -125.82618,94.22656 248.03126,0 0,88.58203 -248.03126,0 0,-88.58203 z"/><rect style="fill:#fff;fill-opacity:1;stroke:#37abc8;stroke-width:5.6692915;stroke-miterlimit:4;stroke-dasharray:none;stroke-opacity:1" id="rect4785" width="16.135" height="317.316" x="101.69" y="114.208"/><rect style="fill:#fff;fill-opacity:1;stroke:#37abc8;stroke-width:5.6692915;stroke-miterlimit:4;stroke-dasharray:none;stroke-opacity:1" id="rect4785-3" width="16.135" height="317.316" x="475.319" y="114.208"/><rect style="fill:#37abc8;fill-opacity:1;stroke:none;stroke-width:1.58190751;stroke-miterlimit:4;stroke-dasharray:none" id="rect4785-3-6" width="16.135" height="134.796" x="264.799" y="-252.199" transform="matrix(0,1,-1,0,0,0)"/><text id="text5572" x="179.088" y="404.162" xml:space="preserve" style="font-style:normal;font-weight:400;font-size:40px;line-height:125%;font-family:sans-serif;letter-spacing:0;word-spacing:0;fill:#000;fill-opacity:1;stroke:none;stroke-width:1px;stroke-linecap:butt;stroke-linejoin:miter;stroke-opacity:1"><tspan style="font-size:50px;fill:#37abc8;fill-opacity:1" id="tspan5574" x="179.088" y="404.162">OoRoBoT</tspan></text><rect style="fill:#37abc8;fill-opacity:1;stroke:none;stroke-width:1.58190751;stroke-miterlimit:4;stroke-dasharray:none" id="rect4785-3-6-7" width="16.135" height="134.796" x="263.038" y="-474.484" transform="matrix(0,1,-1,0,0,0)"/></g></svg>