<svg xmlns="http://www.w3.org/2000/svg" xmlns:xml="http://www.w3.org/XML/1998/namespace" id="Layer_1" width="21.6" height="34.2" version="1.1" viewBox="0 0 21.6 34.2" xml:space="preserve"><metadata id="metadata150882"><rdf:RDF xmlns:rdf="http://www.w3.org/1999/02/22-rdf-syntax-ns#"><cc:Work xmlns:cc="http://creativecommons.org/ns#" xmlns:rdf="http://www.w3.org/1999/02/22-rdf-syntax-ns#"><dc:format xmlns:dc="http://purl.org/dc/elements/1.1/">image/svg+xml</dc:format><dc:type xmlns:dc="http://purl.org/dc/elements/1.1/" xmlns:rdf="http://www.w3.org/1999/02/22-rdf-syntax-ns#" rdf:resource="http://purl.org/dc/dcmitype/StillImage"/><dc:title xmlns:dc="http://purl.org/dc/elements/1.1/"/></cc:Work></rdf:RDF></metadata><g style="display:inline" id="layer6" transform="translate(0,10.118)"><g id="g213067"><path style="color:#000;fill:none;stroke:#8c8c8c;stroke-width:2.16000009;stroke-linecap:round;stroke-linejoin:round;stroke-miterlimit:4;stroke-opacity:1;stroke-dasharray:none;stroke-dashoffset:0;marker:none;visibility:visible;display:inline;overflow:visible;enable-background:accumulate" id="path212445" d="m 1.7999999,15.104998 5.3999999,-5.4 0,-3.599999"/><line style="fill:none;stroke:#8c8c8c;stroke-width:2.16000009;stroke-linecap:round" id="connector3leg" x1="1.8" x2="1.8" y1="15.105" y2="22.282"/><line style="fill:none;stroke:#8c8c8c;stroke-width:2.16000009;stroke-linecap:round" id="connector2leg" x1="10.8" x2="10.8" y1="15.105" y2="22.282"/><line style="fill:none;stroke:#8c8c8c;stroke-width:2.16000009;stroke-linecap:round" id="connector1leg" x1="19.8" x2="19.8" y1="15.105" y2="22.282"/><rect style="fill:#8c8c8c" id="rect9506" width="2.154" height="9.351" x="9.717" y="5.754"/><rect style="fill:#1a1a1a" id="rect9553" width="13.278" height="10.07" x="4.155" y="-4.318"/><path style="fill:#141414" id="path9555" d="m 16.428,-4.3180015 v 2.4529996 8.2279999 1.842999 c 0.633,-0.713999 1.005,-1.553999 1.005,-2.452999 l 0,0 V -4.3180015 h -1.005 z"/><path style="fill:#242424" id="path9557" d="m 5.1609994,-4.3180015 h -1.005 V 5.751998 l 0,0 c 0,0.899 0.373,1.739 1.005,2.452999 V 6.361998 -1.8650019 -4.3180015 z"/><path style="fill:#1f1f1f" id="path9559" d="m 4.1549994,-4.3180015 0,0 c 0,0.899 0.373,1.74 1.005,2.4529996 H 16.436 c 0.632,-0.7129996 1.005,-1.5539996 1.005,-2.4529996 l 0,0 H 4.1549994 z"/><path style="fill:#141414" id="path9561" d="m 10.794999,-8.9770015 c -3.6679996,0 -6.6399996,2.086 -6.6399996,4.661 H 17.433 c 0,-2.575 -2.97,-4.661 -6.638001,-4.661 z"/><path style="color:#000;fill:none;stroke:#8c8c8c;stroke-width:2.16000009;stroke-linecap:round;stroke-linejoin:round;stroke-miterlimit:4;stroke-opacity:1;stroke-dasharray:none;stroke-dashoffset:0;marker:none;visibility:visible;display:inline;overflow:visible;enable-background:accumulate" id="path212957" d="m 19.8,15.104998 -5.4,-5.4 0,-3.599999"/><rect id="rect9563" width="11.276" height="10.07" x="5.161" y="-1.865"/><g style="font-size:3px;fill:#e6e6e6;font-family:OCRA" id="label0"><text style="font-style:normal;font-variant:normal;font-weight:400;font-stretch:normal;text-align:center;text-anchor:middle;font-family:OCR A Std;-inkscape-font-specification:OCR A Std" id="tspan150901" x="10.758" y="2.417">DS18</text></g><g style="font-size:3px;fill:#e6e6e6;font-family:OCRA" id="label0_1_"><text style="font-style:normal;font-variant:normal;font-weight:400;font-stretch:normal;font-family:OCR A Std;-inkscape-font-specification:OCR A Std" id="tspan150907" x="7.53" y="5.464">B20</text></g><path style="color:#000;fill:none;stroke:#8c8c8c;stroke-width:2.16000009;stroke-linecap:round;stroke-linejoin:miter;stroke-miterlimit:4;stroke-opacity:0;stroke-dasharray:none;stroke-dashoffset:0;marker:none;visibility:visible;display:inline;overflow:visible;enable-background:accumulate" id="connector3pin" d="m 1.8,32.400001 0,1.8" transform="translate(-1.3401714e-7,-10.118)"/><path style="color:#000;fill:none;stroke:#8c8c8c;stroke-width:2.16000009;stroke-linecap:round;stroke-linejoin:miter;stroke-miterlimit:4;stroke-opacity:0;stroke-dasharray:none;stroke-dashoffset:0;marker:none;visibility:visible;display:inline;overflow:visible;enable-background:accumulate" id="connector2pin" d="m 10.8,32.400001 0,1.8" transform="translate(-1.3401714e-7,-10.118)"/><path style="color:#000;fill:none;stroke:#8c8c8c;stroke-width:2.16000009;stroke-linecap:round;stroke-linejoin:miter;stroke-miterlimit:4;stroke-opacity:0;stroke-dasharray:none;stroke-dashoffset:0;marker:none;visibility:visible;display:inline;overflow:visible;enable-background:accumulate" id="connector1pin" d="m 19.8,32.400001 0,1.8" transform="translate(-1.3401714e-7,-10.118)"/></g></g></svg>