<svg xmlns="http://www.w3.org/2000/svg" width="57" height="17" version="1.1"><style type="text/css">#background{fill:none}.shield{fill:#00f;stroke:#fff;stroke-width:1px}.mark{font-family:sans-serif;font-size:9pt;font-weight:700;text-anchor:middle}#gear,.mark{fill:#fff}</style><rect id="background" width="57" height="17" x="0" y="0"/><g><g class="comment" transform="translate(0.5, 0.5) translate(0, 0)"><circle cx="8" cy="8" r="8" class="shield"/><text x="8" y="12.75" class="mark">?</text></g><g class="mutator" transform="translate(0.5, 0.5) translate(20, 0)"><rect width="16" height="16" class="shield" rx="4" ry="4"/><path id="gear" d="M4.105,9.36C4.04,9.731,4,10.11,4,10.5s0.04,0.77,0.105,1.14l-1.534,1.129l-0.183,0.683l1.5,2.598 l0.684,0.184l1.738-0.762c0.581,0.49,1.25,0.875,1.979,1.138L8.5,18.5L9,19h3l0.5-0.499l0.211-1.896 c0.727-0.264,1.394-0.648,1.975-1.137l1.744,0.764l0.682-0.184l1.5-2.598l-0.184-0.684l-1.534-1.129C16.96,11.269,17,10.889,17,10.5 s-0.04-0.769-0.106-1.139l1.534-1.129l0.184-0.684l-1.5-2.598L16.43,4.768l-1.744,0.764c-0.58-0.488-1.248-0.873-1.975-1.137 L12.5,2.499L12,2H9L8.5,2.5L8.29,4.392C7.561,4.654,6.892,5.04,6.311,5.529L4.572,4.768L3.889,4.951L2.39,7.549L2.57,8.231 L4.105,9.36z M6.85,10.5c0-2.016,1.635-3.65,3.65-3.65s3.65,1.635,3.65,3.65s-1.635,3.65-3.65,3.65S6.85,12.516,6.85,10.5z" transform="scale(.6, .6) translate(2.9, 2.8)"/></g><g class="warning"><path d="M 2,15 Q -1,15 0.5,12 L 6.5,1.7 Q 8,-1 9.5,1.7 L 15.5,12 Q 17,15 14,15 z" class="shield" transform="translate(0.5, 0.5) translate(40, 0)"/><text x="8" y="13" class="mark" transform="translate(0.5, 0.5) translate(40, 0)">!</text></g></g></svg>