<svg xmlns="http://www.w3.org/2000/svg" xmlns:svg="http://www.w3.org/2000/svg" id="svg4240" width="1280mm" height="880mm" version="1.1" viewBox="0 0 4535.433 3118.11"><title id="title4788">Découpage Laser</title><metadata id="metadata4245"/><g id="layer1" transform="translate(0,2065.7481)"><rect style="fill:none;fill-opacity:1;stroke:#000;stroke-width:.35433072;stroke-miterlimit:4;stroke-dasharray:none;stroke-opacity:1" id="rect49777" width="1594.134" height="1771.299" x="1829.602" y="-1440.056"/><path style="fill:none;stroke:red" id="path53568" d="m 1545.9607,-1723.6975 35.6102,0 0,10.6299 35.0787,0 0,-10.6299 35.7874,0 0,10.6299 35.0788,0 0,-10.6299 35.7874,0 0,10.6299 35.0787,0 0,-10.6299 35.7874,0 0,10.6299 35.0788,0 0,-10.6299 35.7874,0 0,10.6299 35.0787,0 0,-10.6299 35.7874,0 0,10.6299 35.0787,0 0,-10.6299 35.7874,0 0,10.6299 35.0788,0 0,-10.6299 35.7874,0 0,10.6299 35.0787,0 0,-10.6299 35.7874,0 0,10.6299 35.0788,0 0,-10.6299 35.7874,0 0,10.6299 35.0787,0 0,-10.6299 35.7874,0 0,10.6299 35.0788,0 0,-10.6299 35.7874,0 0,10.6299 35.0787,0 0,-10.6299 35.7874,0 0,10.6299 35.0787,0 0,-10.6299 35.7874,0 0,10.6299 35.0788,0 0,-10.6299 35.7874,0 0,10.6299 35.0787,0 0,-10.6299 35.7874,0 0,10.6299 35.0788,0 0,-10.6299 35.7874,0 0,10.6299 35.0787,0 0,-10.6299 35.7874,0 0,10.6299 35.0787,0 0,-10.6299 35.7874,0 0,10.6299 35.0788,0 0,-10.6299 35.7874,0 0,10.6299 35.0787,0 0,-10.6299 35.7874,0 0,10.6299 35.0788,0 0,-10.6299 35.7874,0 0,10.6299 35.0787,0 0,-10.6299 35.7874,0 0,10.6299 35.0788,0 0,-10.6299 35.7874,0 0,10.6299 35.0787,0 0,-10.6299 35.7874,0 0,10.6299 35.0787,0 0,-10.6299 35.7874,0 0,10.6299 35.0788,0 0,-10.6299 35.7874,0 0,10.6299 35.0787,0 0,-10.6299 35.7874,0 0,10.6299 35.0788,0 0,-10.6299 35.7874,0 0,10.6299 35.0787,0 0,-10.6299 35.7874,0 0,10.6299 35.0787,0 0,-10.6299 35.6103,0 0,36.1553 -10.6299,0 0,35.6239 10.6299,0 0,36.3325 -10.6299,0 0,35.6239 10.6299,0 0,36.3325 -10.6299,0 0,35.6239 10.6299,0 0,36.3325 -10.6299,0 0,35.6239 10.6299,0 0,36.3325 -10.6299,0 0,35.6238 10.6299,0 0,36.3326 -10.6299,0 0,35.6238 10.6299,0 0,36.3326 -10.6299,0 0,35.6238 10.6299,0 0,36.3326 -10.6299,0 0,35.6238 10.6299,0 0,36.3325 -10.6299,0 0,35.6239 10.6299,0 0,36.3325 -10.6299,0 0,35.6239 10.6299,0 0,36.3325 -10.6299,0 0,35.62387 10.6299,0 0,36.33252 -10.6299,0 0,35.62386 10.6299,0 0,36.33253 -10.6299,0 0,35.62386 10.6299,0 0,36.33253 -10.6299,0 0,35.62387 10.6299,0 0,36.33252 -10.6299,0 0,35.62387 10.6299,0 0,36.33252 -10.6299,0 0,35.62387 10.6299,0 0,36.33252 -10.6299,0 0,35.62387 10.6299,0 0,36.33252 -10.6299,0 0,35.62387 10.6299,0 0,36.33252 -10.6299,0 0,35.62387 10.6299,0 0,36.33252 -10.6299,0 0,35.62387 10.6299,0 0,36.33252 -10.6299,0 0,35.62387 10.6299,0 0,36.33252 -10.6299,0 0,35.62387 10.6299,0 0,36.33252 -10.6299,0 0,35.623865 10.6299,0 0,36.33252 -10.6299,0 0,35.6238696 10.6299,0 0,36.3325204 -10.6299,0 0,35.62387 10.6299,0 0,36.332525 -10.6299,0 0,35.62387 10.6299,0 0,36.33254 -10.6299,0 0,35.6238 10.6299,0 0,36.3326 -10.6299,0 0,35.6238 10.6299,0 0,36.3326 -10.6299,0 0,35.6238 10.6299,0 0,36.3326 -10.6299,0 0,35.6238 10.6299,0 0,36.3325 -10.6299,0 0,35.6239 10.6299,0 0,36.3325 -10.6299,0 0,35.6239 10.6299,0 0,36.1554 -35.6103,0 0,-10.63 -35.0787,0 0,10.63 -35.7874,0 0,-10.63 -35.0787,0 0,10.63 -35.7874,0 0,-10.63 -35.0788,0 0,10.63 -35.7874,0 0,-10.63 -35.0787,0 0,10.63 -35.7874,0 0,-10.63 -35.0788,0 0,10.63 -35.7874,0 0,-10.63 -35.0787,0 0,10.63 -35.7874,0 0,-10.63 -35.0787,0 0,10.63 -35.7874,0 0,-10.63 -35.0788,0 0,10.63 -35.7874,0 0,-10.63 -35.0787,0 0,10.63 -35.7874,0 0,-10.63 -35.0788,0 0,10.63 -35.7874,0 0,-10.63 -35.0787,0 0,10.63 -35.7874,0 0,-10.63 -35.0788,0 0,10.63 -35.7874,0 0,-10.63 -35.0787,0 0,10.63 -35.7874,0 0,-10.63 -35.0787,0 0,10.63 -35.7874,0 0,-10.63 -35.0788,0 0,10.63 -35.7874,0 0,-10.63 -35.0787,0 0,10.63 -35.7874,0 0,-10.63 -35.0788,0 0,10.63 -35.7874,0 0,-10.63 -35.0787,0 0,10.63 -35.7874,0 0,-10.63 -35.0787,0 0,10.63 -35.7874,0 0,-10.63 -35.0788,0 0,10.63 -35.7874,0 0,-10.63 -35.0787,0 0,10.63 -35.7874,0 0,-10.63 -35.0788,0 0,10.63 -35.7874,0 0,-10.63 -35.0787,0 0,10.63 -35.7874,0 0,-10.63 -35.0788,0 0,10.63 -35.7874,0 0,-10.63 -35.0787,0 0,10.63 -35.7874,0 0,-10.63 -35.0787,0 0,10.63 -35.7874,0 0,-10.63 -35.0788,0 0,10.63 -35.7874,0 0,-10.63 -35.0787,0 0,10.63 -35.7874,0 0,-10.63 -35.0788,0 0,10.63 -35.7874,0 0,-10.63 -35.0787,0 0,10.63 -35.6102,0 0,-36.1554 10.6299,0 0,-35.6239 -10.6299,0 0,-36.3325 10.6299,0 0,-35.6239 -10.6299,0 0,-36.3325 10.6299,0 0,-35.6238 -10.6299,0 0,-36.3326 10.6299,0 0,-35.6238 -10.6299,0 0,-36.3326 10.6299,0 0,-35.6238 -10.6299,0 0,-36.3326 10.6299,0 0,-35.6238 -10.6299,0 0,-36.33254 10.6299,0 0,-35.62387 -10.6299,0 0,-36.332525 10.6299,0 0,-35.62387 -10.6299,0 0,-36.3325204 10.6299,0 0,-35.6238696 -10.6299,0 0,-36.33252 10.6299,0 0,-35.623865 -10.6299,0 0,-36.33252 10.6299,0 0,-35.62387 -10.6299,0 0,-36.33252 10.6299,0 0,-35.62387 -10.6299,0 0,-36.33252 10.6299,0 0,-35.62387 -10.6299,0 0,-36.33252 10.6299,0 0,-35.62387 -10.6299,0 0,-36.33252 10.6299,0 0,-35.62387 -10.6299,0 0,-36.33252 10.6299,0 0,-35.62387 -10.6299,0 0,-36.33252 10.6299,0 0,-35.62387 -10.6299,0 0,-36.33252 10.6299,0 0,-35.62387 -10.6299,0 0,-36.33252 10.6299,0 0,-35.62387 -10.6299,0 0,-36.33253 10.6299,0 0,-35.62386 -10.6299,0 0,-36.33253 10.6299,0 0,-35.62386 -10.6299,0 0,-36.33252 10.6299,0 0,-35.62387 -10.6299,0 0,-36.3325 10.6299,0 0,-35.6239 -10.6299,0 0,-36.3325 10.6299,0 0,-35.6239 -10.6299,0 0,-36.3325 10.6299,0 0,-35.6238 -10.6299,0 0,-36.3326 10.6299,0 0,-35.6238 -10.6299,0 0,-36.3326 10.6299,0 0,-35.6238 -10.6299,0 0,-36.3326 10.6299,0 0,-35.6238 -10.6299,0 0,-36.3325 10.6299,0 0,-35.6239 -10.6299,0 0,-36.3325 10.6299,0 0,-35.6239 -10.6299,0 0,-36.3325 10.6299,0 0,-35.6239 -10.6299,0 0,-36.3325 10.6299,0 0,-35.6239 -10.6299,0 0,-36.1553 z"/><path style="fill:none;stroke:red" id="path53570" d="m 3929.2602,-1709.4728 0,2161.41728 -55.689,0 0,-10.6299 -55.1574,0 0,10.6299 -55.689,0 0,-35.2559 -10.6299,0 0,-35.7874 10.6299,0 0,-35.0788 -10.6299,0 0,-35.7874 10.6299,0 0,-35.0787 -10.6299,0 0,-35.7874 10.6299,0 0,-35.0787 -10.6299,0 0,-35.7874 10.6299,0 0,-35.0788 -10.6299,0 0,-35.787396 10.6299,0 0,-35.0787 -10.6299,0 0,-35.787399 10.6299,0 0,-35.0787997 -10.6299,0 0,-35.7874003 10.6299,0 0,-35.0787 -10.6299,0 0,-35.787395 10.6299,0 0,-35.0788 -10.6299,0 0,-35.78741 10.6299,0 0,-35.0787 -10.6299,0 0,-35.7874 10.6299,0 0,-35.0787 -10.6299,0 0,-35.78745 10.6299,0 0,-35.0788 -10.6299,0 0,-35.7874 10.6299,0 0,-35.0787 -10.6299,0 0,-35.7874 10.6299,0 0,-35.0788 -10.6299,0 0,-35.7874 10.6299,0 0,-35.0787 -10.6299,0 0,-35.7874 10.6299,0 0,-35.0787 -10.6299,0 0,-35.7874 10.6299,0 0,-35.0788 -10.6299,0 0,-35.7874 10.6299,0 0,-35.0787 -10.6299,0 0,-35.7874 10.6299,0 0,-35.0788 -10.6299,0 0,-35.7874 10.6299,0 0,-35.0787 -10.6299,0 0,-35.7874 10.6299,0 0,-35.07883 -10.6299,0 0,-35.7874 10.6299,0 0,-35.0786 -10.6299,0 0,-35.7874 10.6299,0 0,-35.0787 -10.6299,0 0,-35.7874 10.6299,0 0,-35.0788 -10.6299,0 0,-35.7874 10.6299,0 0,-35.0787 -10.6299,0 0,-35.7874 10.6299,0 0,-35.0788 -10.6299,0 0,-35.7874 10.6299,0 0,-35.0787 -10.6299,0 0,-35.7874 10.6299,0 0,-35.0787 -10.6299,0 0,-35.7874 10.6299,0 0,-35.0788 -10.6299,0 0,-35.7874 10.6299,0 0,-35.0787 -10.6299,0 0,-35.7874 10.6299,0 0,-35.2559 55.689,0 0,10.6299 55.1574,0 0,-10.6299 55.689,0 z"/><path style="fill:none;stroke:red" id="path53572" d="m 1272.3242,-1696.3678 0,2161.41729 -55.6889,0 0,-10.6299 -55.1575,0 0,10.6299 -55.689,0 0,-35.2559 -10.6299,0 0,-35.7874 10.6299,0 0,-35.0787 -10.6299,0 0,-35.7874 10.6299,0 0,-35.0787 -10.6299,0 0,-35.7874 10.6299,0 0,-35.0788 -10.6299,0 0,-35.7874 10.6299,0 0,-35.0787 -10.6299,0 0,-35.7874 10.6299,0 0,-35.078802 -10.6299,0 0,-35.7874 10.6299,0 0,-35.0786998 -10.6299,0 0,-35.7874002 10.6299,0 0,-35.0788 -10.6299,0 0,-35.787398 10.6299,0 0,-35.0787 -10.6299,0 0,-35.7874 10.6299,0 0,-35.0787 -10.6299,0 0,-35.7874 10.6299,0 0,-35.0788 -10.6299,0 0,-35.78736 10.6299,0 0,-35.0787 -10.6299,0 0,-35.7874 10.6299,0 0,-35.0788 -10.6299,0 0,-35.7874 10.6299,0 0,-35.0787 -10.6299,0 0,-35.7874 10.6299,0 0,-35.0787 -10.6299,0 0,-35.7874 10.6299,0 0,-35.0788 -10.6299,0 0,-35.7874 10.6299,0 0,-35.0787 -10.6299,0 0,-35.7874 10.6299,0 0,-35.0788 -10.6299,0 0,-35.78738 10.6299,0 0,-35.07874 -10.6299,0 0,-35.7874 10.6299,0 0,-35.07874 -10.6299,0 0,-35.7874 10.6299,0 0,-35.07874 -10.6299,0 0,-35.78743 10.6299,0 0,-35.0787 -10.6299,0 0,-35.7874 10.6299,0 0,-35.0788 -10.6299,0 0,-35.7874 10.6299,0 0,-35.0787 -10.6299,0 0,-35.7874 10.6299,0 0,-35.0787 -10.6299,0 0,-35.7874 10.6299,0 0,-35.0788 -10.6299,0 0,-35.7874 10.6299,0 0,-35.0787 -10.6299,0 0,-35.7874 10.6299,0 0,-35.0788 -10.6299,0 0,-35.7874 10.6299,0 0,-35.0787 -10.6299,0 0,-35.7874 10.6299,0 0,-35.0787 -10.6299,0 0,-35.7875 10.6299,0 0,-35.2559 55.689,0 0,10.63 55.1575,0 0,-10.63 55.6889,0 z"/><path style="fill:none;stroke:red" id="path53574" d="m 4147.5382,-1676.6589 0,2296.06304 -55.3346,0 0,10.63 -55.8662,0 0,-10.63 -55.3346,0 0,-25.1711 -10.6299,0 0,-36.3325 10.6299,0 0,-35.6239 -10.6299,0 0,-36.3325 10.6299,0 0,-35.6239 -10.6299,0 0,-36.3325 10.6299,0 0,-35.6238 -10.6299,0 0,-36.3326 10.6299,0 0,-35.6238 -10.6299,0 0,-36.3326 10.6299,0 0,-35.6238 -10.6299,0 0,-36.3326 10.6299,0 0,-35.6238 -10.6299,0 0,-36.3325 10.6299,0 0,-35.6239 -10.6299,0 0,-36.3325 10.6299,0 0,-35.6239 -10.6299,0 0,-36.3325 10.6299,0 0,-35.6239 -10.6299,0 0,-36.3325 10.6299,0 0,-35.6239 -10.6299,0 0,-36.3325 10.6299,0 0,-35.6239 -10.6299,0 0,-36.3325 10.6299,0 0,-35.6239 -10.6299,0 0,-36.3325 10.6299,0 0,-35.6238 -10.6299,0 0,-36.3326 10.6299,0 0,-35.6238 -10.6299,0 0,-36.33261 10.6299,0 0,-35.62379 -10.6299,0 0,-36.33261 10.6299,0 0,-35.62379 -10.6299,0 0,-36.3325 10.6299,0 0,-35.6239 -10.6299,0 0,-36.3325 10.6299,0 0,-35.6239 -10.6299,0 0,-36.3325 10.6299,0 0,-35.6239 -10.6299,0 0,-36.3325 10.6299,0 0,-35.62391 -10.6299,0 0,-36.33249 10.6299,0 0,-35.62391 -10.6299,0 0,-36.3325 10.6299,0 0,-35.6239 -10.6299,0 0,-36.33253 10.6299,0 0,-35.6238 -10.6299,0 0,-36.3326 10.6299,0 0,-35.6238 -10.6299,0 0,-36.3326 10.6299,0 0,-35.6238 -10.6299,0 0,-36.3326 10.6299,0 0,-35.6238 -10.6299,0 0,-36.3325 10.6299,0 0,-35.6239 -10.6299,0 0,-36.3325 10.6299,0 0,-35.6239 -10.6299,0 0,-36.3325 10.6299,0 0,-35.6239 -10.6299,0 0,-36.3325 10.6299,0 0,-35.6239 -10.6299,0 0,-36.3325 10.6299,0 0,-35.6239 -10.6299,0 0,-36.3325 10.6299,0 0,-25.1711 55.3346,0 0,-10.6299 55.8662,0 0,10.6299 55.3346,0 z"/><path style="fill:none;stroke:red" id="path53576" d="m 1503.4609,-1683.2114 0,2296.06296 -55.3346,0 0,10.63 -55.8662,0 0,-10.63 -55.3346,0 0,-25.1711 -10.6299,0 0,-36.3325 10.6299,0 0,-35.6239 -10.6299,0 0,-36.3325 10.6299,0 0,-35.6239 -10.6299,0 0,-36.3325 10.6299,0 0,-35.6238 -10.6299,0 0,-36.3326 10.6299,0 0,-35.6238 -10.6299,0 0,-36.3326 10.6299,0 0,-35.6238 -10.6299,0 0,-36.3326 10.6299,0 0,-35.6238 -10.6299,0 0,-36.3325 10.6299,0 0,-35.6239 -10.6299,0 0,-36.3325 10.6299,0 0,-35.6239 -10.6299,0 0,-36.3325 10.6299,0 0,-35.6239 -10.6299,0 0,-36.332497 10.6299,0 0,-35.623903 -10.6299,0 0,-36.3325 10.6299,0 0,-35.6239 -10.6299,0 0,-36.3325 10.6299,0 0,-35.6239 -10.6299,0 0,-36.3325 10.6299,0 0,-35.6238 -10.6299,0 0,-36.3326 10.6299,0 0,-35.62376 -10.6299,0 0,-36.3326 10.6299,0 0,-35.6238 -10.6299,0 0,-36.3326 10.6299,0 0,-35.6238 -10.6299,0 0,-36.3325 10.6299,0 0,-35.6239 -10.6299,0 0,-36.3325 10.6299,0 0,-35.6239 -10.6299,0 0,-36.3325 10.6299,0 0,-35.6239 -10.6299,0 0,-36.33251 10.6299,0 0,-35.62387 -10.6299,0 0,-36.33252 10.6299,0 0,-35.62387 -10.6299,0 0,-36.33252 10.6299,0 0,-35.62391 -10.6299,0 0,-36.3325 10.6299,0 0,-35.6239 -10.6299,0 0,-36.3325 10.6299,0 0,-35.6238 -10.6299,0 0,-36.3326 10.6299,0 0,-35.6238 -10.6299,0 0,-36.3326 10.6299,0 0,-35.6238 -10.6299,0 0,-36.3325 10.6299,0 0,-35.6239 -10.6299,0 0,-36.3325 10.6299,0 0,-35.6239 -10.6299,0 0,-36.3325 10.6299,0 0,-35.6239 -10.6299,0 0,-36.3325 10.6299,0 0,-35.6239 -10.6299,0 0,-36.3325 10.6299,0 0,-35.6239 -10.6299,0 0,-36.3325 10.6299,0 0,-25.1711 55.3346,0 0,-10.6299 55.8662,0 0,10.6299 55.3346,0 z"/></g></svg>