<svg xmlns="http://www.w3.org/2000/svg" xmlns:svg="http://www.w3.org/2000/svg" id="svg2" width="1200" height="1200" x="0" y="0" enable-background="new 0 0 1200 1200" version="1.1" viewBox="0 0 1200 1200" xml:space="preserve"><metadata id="metadata10453"/><path id="path18745" d="m 600,50.847458 c -306.09694,0 -554.237288,248.140342 -554.237288,554.237282 0,306.09694 248.140348,554.23726 554.237288,554.23726 205.44745,0 384.63144,-111.8663 480.3574,-277.93057 L 885.23822,769.15006 C 828.36146,867.79784 722.04952,934.36635 600,934.36635 c -181.85726,0 -329.28161,-147.42435 -329.28161,-329.28161 0,-181.85726 147.42435,-329.28161 329.28161,-329.28161 77.9507,0 149.39651,27.2694 205.74119,72.59493 l -145.52701,103.51397 494.02312,164.74149 0,-516.28219 -160.88586,114.47401 C 892.93657,113.61667 753.8498,50.847458 600,50.847458 Z" style="fill:#fff"/></svg>